<?xml version="1.0" encoding="utf-8"?>
<!-- Generator: Adobe Illustrator 18.0.0, SVG Export Plug-In . SVG Version: 6.00 Build 0)  -->
<!DOCTYPE svg PUBLIC "-//W3C//DTD SVG 1.1//EN" "http://www.w3.org/Graphics/SVG/1.1/DTD/svg11.dtd">
<svg version="1.1" id="Layer_1" xmlns="http://www.w3.org/2000/svg" xmlns:xlink="http://www.w3.org/1999/xlink" x="0px" y="0px"
	 viewBox="0 0 100 26" enable-background="new 0 0 100 26" xml:space="preserve">
<g>
	<path fill="#0F1031" d="M1,8.1h3.3V7.3C4.3,3.3,5.8,1,11,1c1.1,0,1.8,0,2.3,0.1v4h-1.7c-2,0-2.5,0.8-2.5,2.2v0.9h4.1v4.2H9.2v13.4
		H4.3V12.3H1V8.1z M15.5,2.1h4.9v4.4h-4.9V2.1z M15.5,8.1h4.9v17.6h-4.9V8.1z"/>
	<path fill="#0F1031" d="M24.4,8.4l3.8-0.3l0.4,1.5c0.9-1,2.6-1.9,6.4-1.9c5.3,0,6.3,3,6.3,7.3v10.7h-4.8V16c0-2.1-0.2-3.7-3.2-3.7
		c-3.4,0-3.9,1.6-3.9,3.9v9.5h-4.9V8.4z"/>
	<path fill="#0F1031" d="M44.2,16.9c0-4.9,1.6-9.2,9.1-9.2c7.7,0,8,5.2,7.8,11H48.9c0.3,2.1,1.3,3.4,4.4,3.4c2.7,0,4.2-0.7,5.5-1.6
		l2.5,3.2c-2.3,1.7-4.5,2.4-8,2.4C45.7,26,44.2,21.9,44.2,16.9z M48.9,15.3h7.8c-0.1-2-0.5-3.5-3.5-3.5
		C50.2,11.8,49.2,13.1,48.9,15.3z"/>
	<path fill="#0F1031" d="M80.6,16.9c0-5.9,2.6-9.2,9.2-9.2s9.2,3.3,9.2,9.2S96.4,26,89.8,26S80.6,22.8,80.6,16.9z M94.1,17
		c0-3-0.9-4.8-4.3-4.8c-3.4,0-4.3,1.9-4.3,4.8c0,3,0.9,4.9,4.3,4.9C93.1,21.9,94.1,20,94.1,17z"/>
	<g>
		<path fill="#66FF33" d="M73.9,16.5l5.8-8.4h-5.4L70.9,13l-2.5,3.5L62,25.7h5.5l3.9-5.7L73.9,16.5z"/>
		<path fill="#0F1031" d="M71.4,20l3.8,5.7h5.1l-6.4-9.2L71.4,20z M70.9,13l-3.2-4.9h-5.1l5.8,8.4L70.9,13z"/>
	</g>
</g>
</svg>
